<?xml version="1.0" encoding="utf-8"?>
<!-- Generator: Adobe Illustrator 25.0.0, SVG Export Plug-In . SVG Version: 6.00 Build 0)  -->
<svg version="1.1" id="Layer_1" xmlns="http://www.w3.org/2000/svg" xmlns:xlink="http://www.w3.org/1999/xlink" x="0px" y="0px"
	 viewBox="0 0 841.9 378.2" style="enable-background:new 0 0 841.9 378.2;" xml:space="preserve">
<style type="text/css">
	.st0{fill:url(#SVGID_1_);}
	.st1{fill:url(#SVGID_2_);}
	.st2{fill:url(#SVGID_3_);}
	.st3{fill:url(#SVGID_4_);}
	.st4{fill:url(#SVGID_5_);}
	.st5{fill:url(#SVGID_6_);}
	.st6{fill:url(#SVGID_7_);}
	.st7{fill:url(#SVGID_8_);}
	.st8{fill:url(#SVGID_9_);}
	.st9{fill:url(#SVGID_10_);}
	.st10{fill:none;stroke:url(#SVGID_11_);stroke-width:2;stroke-miterlimit:10;}
	.st11{fill:#FFFFFF;}
	.st12{fill:#E9563B;}
	.st13{fill:#EE7D5E;}
	.st14{fill:#C26F55;}
	.st15{fill:none;stroke:#E3191A;stroke-miterlimit:10;}
</style>
<linearGradient id="SVGID_1_" gradientUnits="userSpaceOnUse" x1="25.5128" y1="109.8093" x2="126.22" y2="109.8093" gradientTransform="matrix(1 0 0 -1 0 379.2756)">
	<stop  offset="0" style="stop-color:#FFFFFF"/>
	<stop  offset="0.2758" style="stop-color:#E62F21"/>
	<stop  offset="0.6418" style="stop-color:#E41E1A"/>
	<stop  offset="1" style="stop-color:#E30613"/>
</linearGradient>
<path class="st0" d="M41.4,189.5c0.9,20.3,0.9,48.1,13.4,63.7c2.5-6.9,8.3-12.8,15.2,3.3c6.9-12.6,14.8-9,21.6,0
	c25.7,56,14.3-51.2,16.6-67c0,50.6,18-2,18,0c0,55,0,5.7-0.1,80.5c0,19.8-0.1,76.5-0.1,80.5c0-29.9-18-36.6-18,0
	c0-47.5,0-18.5,0-55.9c-1.4-85.8,5.6,66.4-16.2-20c-6.9-9.4-14.6-0.9-21.1-3c-6.5-20.2-11.9,23.3-14.4,2.9
	c-9.8,35.8-5.6,19.8-11.8,62.5c-31.1,50.1-0.4-60.1-8.5-67.3C41.4,247.4,6.2,179.4,41.4,189.5z"/>
<linearGradient id="SVGID_2_" gradientUnits="userSpaceOnUse" x1="140.1" y1="77.3151" x2="188.0245" y2="77.3151" gradientTransform="matrix(1 0 0 -1 0 379.2756)">
	<stop  offset="0" style="stop-color:#FFFFFF"/>
	<stop  offset="0.2758" style="stop-color:#E62F21"/>
	<stop  offset="0.6418" style="stop-color:#E41E1A"/>
	<stop  offset="1" style="stop-color:#E30613"/>
</linearGradient>
<path class="st1" d="M184.8,305.6c0,8.8-8.4-0.4-16.8,0.8c-8.4,24.5-16.8,7-16.8,0c0,18.6,0-9.7,0,15.1c0,16.1,0,23.3,0,15.1
	c16.5-34.8,9.6,6.3,27.7-11.3c3.1,12.6,6.1-11.6,9,7.4c1.9,3.6-25.2,19.6-28.4,12c-4.3-24.1-8.4,17-11.8,1c-4.6,3.5-7.6,1.5-7.6,0
	c0,38.4,0-89.2,0-62.2c0-8.7,0-49.1,0-21.8c0-29.6,11.6,11.4,23.3,0c11.6,23.3,23.3-19.3,23.3,0c0-20.6,0,7.8,0,9.1
	c1.6,46.6-18-17.2-35.4,0c0-0.3,0,69.2,0,26.5c0.2,32.9,37.3-34.5,33.5-0.3C184.8,318.9,184.8,337.3,184.8,305.6z"/>
<linearGradient id="SVGID_3_" gradientUnits="userSpaceOnUse" x1="202.53" y1="82.6039" x2="244.5" y2="82.6039" gradientTransform="matrix(1 0 0 -1 0 379.2756)">
	<stop  offset="0" style="stop-color:#FFFFFF"/>
	<stop  offset="0.2758" style="stop-color:#E62F21"/>
	<stop  offset="0.6418" style="stop-color:#E41E1A"/>
	<stop  offset="1" style="stop-color:#E30613"/>
</linearGradient>
<path class="st2" d="M202.5,254.8c27.1-16.6-6.6,51.4,15.4,68.2c2.5,2.4,7.1,12.5,12.1,2.4c5,28,10.4,12.4,14.6-0.5
	c0-20.4,0-26.1,0,7.8c-7.5-6.8-14.6,12.2-21.4,1c-8.4-28.1-18.7-1.6-20.2,6.6C203,317.7,202.6,259.4,202.5,254.8z"/>
<linearGradient id="SVGID_4_" gradientUnits="userSpaceOnUse" x1="256.0228" y1="76.1341" x2="301.1" y2="76.1341" gradientTransform="matrix(1 0 0 -1 0 379.2756)">
	<stop  offset="0" style="stop-color:#FFFFFF"/>
	<stop  offset="0.2758" style="stop-color:#E62F21"/>
	<stop  offset="0.6418" style="stop-color:#E41E1A"/>
	<stop  offset="1" style="stop-color:#E30613"/>
</linearGradient>
<path class="st3" d="M262.8,257.7c3.3,12.6,8.3-14.5,8.3,1.4c5.1,51.2-4.1-3.5-3.5,52.4c-0.2,19,1.2-11.5,6.8,21.3
	c3.3,5,8.7-24.8,13.9,3.4c5.2,36.7,10.2,23.5,12.7,12.1c-15.5,23.8-26.4-1.7-33.6-8.7c-14.8,2.8-14-85-4.9-74.6
	C262.8,233.3,262.8,249.1,262.8,257.7z"/>
<linearGradient id="SVGID_5_" gradientUnits="userSpaceOnUse" x1="307.518" y1="75.6795" x2="379.1115" y2="75.6795" gradientTransform="matrix(1 0 0 -1 0 379.2756)">
	<stop  offset="0" style="stop-color:#FFFFFF"/>
	<stop  offset="0.2758" style="stop-color:#E62F21"/>
	<stop  offset="0.6418" style="stop-color:#E41E1A"/>
	<stop  offset="1" style="stop-color:#E30613"/>
</linearGradient>
<path class="st4" d="M377.5,299c-4,21-32.7,74.3-51.5,47.3c-17.5-25.9-19.9-2.5-18-45c1.4,8.4,4.7-13.9,9.7-26.8
	c4.2,22.2,8.7,10.5,13.7-14.3C355.6,240.6,386.4,266.7,377.5,299z M318.3,306c-1,98.4,88.6-18.8,31.6-41.4
	c-4.8,0.2-9.8,2.2-13.9,4.1c-4.2-13.3-7.1,22.9-9.3,9.5c-2.2,5.9-3.8,33.2-5.3,13.9C319.9,294.4,318.9,326.8,318.3,306z"/>
<linearGradient id="SVGID_6_" gradientUnits="userSpaceOnUse" x1="413.62" y1="107.7607" x2="542.02" y2="107.7607" gradientTransform="matrix(1 0 0 -1 0 379.2756)">
	<stop  offset="0" style="stop-color:#FFFFFF"/>
	<stop  offset="0.2758" style="stop-color:#E62F21"/>
	<stop  offset="0.6418" style="stop-color:#E41E1A"/>
	<stop  offset="1" style="stop-color:#E30613"/>
</linearGradient>
<path class="st5" d="M440.2,344.7c-0.3-5.7-2.2-4.2-4.2-22.5c-0.6,26.8-1.3,26.8-2-10.9c-0.7,7.5-1.5-18.3-2.2-13.3
	c-0.8,9.3-1.6-45-2.4-13.8c-0.8-12.6-1.6-6.7-2.5-11.5c-0.8,0.7-1.7-46.9-2.5-18.7c-0.8-6.9-1.6,14-2.4-9.7
	c-1.6-39.5-3-37.5-4.3-21.1c-2.5,17.9-4.2-23-4.2-22.5c0-2.1,14.4,28.2,14.4,0c0-6.8,1.4,22.4,3.2,18.9c0.9-9.4,2-26.7,3,17
	c2.6,33.6,4.7,16.1,6.2,37c0.8-13.7,1.5-13.3,2.3,8.8c0.8,21.4,6,37.8,5.7,55.1c0.2,41.8-1.1-23.3,3.8-37.5
	c0.7,23.4,1.5-30.9,2.4-14.4c0.8-13,1.7-9.5,2.6-12.2c0,1.3,0.4-19.5,1,3.5c0.6,14.2,1.6-24.6,2.6-22.4c3-14.5,4.5-22.6,6.8-35
	c2.1,19.6,3.6-2.5,3.6-18.8c0,18.1,14.2-4.5,14.2,0c0-30.5,1.4-2.2,3.3,18.9c0.9,28.4,2,3.6,3.1,14.6c1.1,12.6,2.1,42.6,3.1,20.6
	c5.7,35.3,3.6,78.6,5.5,35.1c0.7,29,1.4,44.4,2,9.2c0.6-0.5,1.2,9.5,1.8,6.6c0.5,25.5,1,7.4,1.4,17.4c1.1,6.6,1.2-27,2.1-17
	c0.6-30.5,1.3-6.9,2-7.1c0.7-12.3,1.5,8.8,2.2-9.2c0.8,8.3,1.6,3.9,2.4-16.4c0-10.5,1.5,21.6,3.6-18.8c0.5-10.7,1.1-38.3,1.6-21.3
	c0.6,16.9,1.1-22.7,1.7,1.6c1.2,7.6,2.3-52.1,3.3-15.2c2.1,2.4,3.6-26.1,3.6-18.8c0,12.2,13.9-15.3,13.9,0c0,20.1-1.9,22.8-4.7,22.5
	c-0.7-3.2-1.5,4.8-2.3,13.5c-0.8,25-1.7-19.8-2.5,12.5c-0.9,14.3-1.8-4-2.7,13.9c-0.9,5-1.8,10.9-2.8,9.6
	c-0.9,4.6-1.9-10.9-2.8,10.9c-0.9-15.6-1.8,17.4-2.7,14.9c-0.9-25.1-1.7,18.5-2.5,14.5c-0.8,45.6-1.6,19.1-2.3,9.2
	c-2.8,1.2-4.7,27.5-4.7,22.5c0,17.4-14.2,11.4-14.2,0c0,21.1-0.4-1.3-1,0.9c-0.6-18-1.5,0-2.5-20.3c-2.2-51.2-2.3,1.9-6.4-36.1
	c-2-39.2-3.4-37.5-3.4-19.4c-0.8,25.1-1.6-24.8-2.2-14.1c-0.7-25.2-1.3-8.7-1.9-10.9c-1.1,4.1-2-57.2-2.7-22.1
	c0,2.4-0.1,10.1-0.2-12.5c-0.3,7.9-0.6,2-1.7,31.3c-0.5,32-1.1,9.2-1.8,3.1c-0.7,7.1-1.4,17.7-2.2,12.8c-0.8,32.5-1.7,16.4-2.7,12.3
	c0,7.1-1.7,16.4-3.9,19.4c-1.1,24-2.4-0.6-3.6,11.9c-0.6-10-1.2-12-1.9,11c-0.6,42.4-1.2,30.8-1.8,13.2c-2.2,14.7-3.9,36.1-3.9,19.4
	C454.4,339,440.2,352.5,440.2,344.7z"/>
<linearGradient id="SVGID_7_" gradientUnits="userSpaceOnUse" x1="539.1077" y1="80.462" x2="612.92" y2="80.462" gradientTransform="matrix(1 0 0 -1 0 379.2756)">
	<stop  offset="0" style="stop-color:#FFFFFF"/>
	<stop  offset="0.2758" style="stop-color:#E62F21"/>
	<stop  offset="0.6418" style="stop-color:#E41E1A"/>
	<stop  offset="1" style="stop-color:#E30613"/>
</linearGradient>
<path class="st6" d="M612.9,300.7c-3.7,61.1-2.6-11-18.6,43.9c-5.6,38.6-12-27.4-18.9,5.6c-5.3,0.7-10.3-20.5-14.7-3.8
	c-2.5-25.9-17.7,20.1-21.6-44c-0.1,10.6,1.9-29.2,5-26.1c1.6-14,3.5,1.5,5.7-5.1c2.2-16.3,4.8-26.3,7.5-12.1
	c2.8-21.6,5.8,9.6,9-11.6c3.2,0.3,6.7,3.5,10.3,5.5C593.6,207.4,612.4,301,612.9,300.7z M550.2,302.2c0.3,10.1,0.2,27.8,6.7,26.6
	c1.1-5.5,2.3,2.6,3.7,9.1s2.8,11.4,4.4-0.7c3.2,14.8,6.8,7.1,11,3.1c27.6-22.7,25.5,14.5,25.9-39.1c0,0.1-0.5-22-1.6-13.9
	c-1.1-17.6-2.6,9.1-4.8-12.3c-2.1-25-4.8-39.8-8-8.8c-3.2,8.5-7-25.4-11.4-3.4c-6.1-7-8.6,43.5-11.3,3.6c-1.6-5.8-3.1,40.6-4.5,16.3
	c-1.3,8.9-2.6-6-3.6-8c-2.2,7.6-3.8,7-4.9,11.6c-0.5,34.3-1,19.6-1.2,24.4C550.4,313.5,550.2,323.7,550.2,302.2z"/>
<linearGradient id="SVGID_8_" gradientUnits="userSpaceOnUse" x1="628.71" y1="75.1684" x2="692.8762" y2="75.1684" gradientTransform="matrix(1 0 0 -1 0 379.2756)">
	<stop  offset="0" style="stop-color:#FFFFFF"/>
	<stop  offset="0.2758" style="stop-color:#E62F21"/>
	<stop  offset="0.6418" style="stop-color:#E41E1A"/>
	<stop  offset="1" style="stop-color:#E30613"/>
</linearGradient>
<path class="st7" d="M628.8,252.2c7.1-14.4,12.2,10.2,23.3,3c6.8,7.7,13.9,28.6,20.8,8c6.9-15.4,13.5,17.1,19.4,9.5
	c2.4,17-2.3,36.8-4.2,8.6c-2.3,4.5-5-1-7.6-3.6c-2.6-2.6-4.9-2.3-6.3,13.7c-2.7-10.4-6.5,1.3-10.8,8.6c0-22.1,0,11.7,0,0.4
	c4.2-54,5.9-7.9,11.9,19c1.3,25.1,2.4-2,3.5,16.5c1,27.1,1.9-2.2,2.8,9.4c0,8-10.8,13.8-10.8,0c-0.7-10.2-1.4-27.3-2.3-17.5
	c-4.4,15.5-4.2-51.4-8.5-18.9c-2.6,7-6-14.2-10.7-4.5c-11-37-10.7,51.8-9.8,20.4c0,24.7,0-12.7,0,20.4c0-33.8-10.4,4.8-10.4,0
	c0,62.5,0-83.5,0-68.8C628.8,268.1,628.8,283.9,628.8,252.2z M639.2,295.1c15.7-14.2,18.7,31,24-4.9c3.2-6.6,4.9-6.3,8-10.4
	c3.5-7.4,3,9.8-1.1-8.7c-5.2-43.2-3.8,12.2-20.6-11.5c-5,30.3-8.6,6.7-10.3,1.1C639.2,247.5,639.2,302.8,639.2,295.1z"/>
<linearGradient id="SVGID_9_" gradientUnits="userSpaceOnUse" x1="695.8733" y1="81.8286" x2="742.09" y2="81.8286" gradientTransform="matrix(1 0 0 -1 0 379.2756)">
	<stop  offset="0" style="stop-color:#FFFFFF"/>
	<stop  offset="0.2758" style="stop-color:#E62F21"/>
	<stop  offset="0.6418" style="stop-color:#E41E1A"/>
	<stop  offset="1" style="stop-color:#E30613"/>
</linearGradient>
<path class="st8" d="M725.2,253.8c23.3-22.6-0.3,33.3-11.2,38.9c-5.7-5.3-6.5,10.7-6.5,20c0,20.2,0,17.8,0,21.8
	c0,12.3,8.6-7.9,17.3,0c8.6,5.2,17.3,0.3,17.3,0c0,3.5,0-1.4,0,10.2c-1.4,6.8-44.3-8.9-44.9,0C691.3,297,706.7,293.5,725.2,253.8z"
	/>
<linearGradient id="SVGID_10_" gradientUnits="userSpaceOnUse" x1="756.7549" y1="89.6673" x2="824.8824" y2="89.6673" gradientTransform="matrix(1 0 0 -1 0 379.2756)">
	<stop  offset="0" style="stop-color:#FFFFFF"/>
	<stop  offset="0.2758" style="stop-color:#E62F21"/>
	<stop  offset="0.6418" style="stop-color:#E41E1A"/>
	<stop  offset="1" style="stop-color:#E30613"/>
</linearGradient>
<path class="st9" d="M771,230.2c13.1,11.5,26.7,23.1,41.8,31.4c35.4,41.8-14.5,105.3-54.9,82.8C752.6,308,767.3,265.1,771,230.2z
	 M768.3,335c38.1,24.5,64.6-55.2,26.7-73C759,230.7,770.8,309,768.3,335z"/>
<linearGradient id="SVGID_11_" gradientUnits="userSpaceOnUse" x1="169.6853" y1="255.1651" x2="453.9022" y2="255.1651" gradientTransform="matrix(1 0 0 -1 0 379.2756)">
	<stop  offset="0" style="stop-color:#FFFFFF"/>
	<stop  offset="0.2758" style="stop-color:#E62F21"/>
	<stop  offset="0.6418" style="stop-color:#E41E1A"/>
	<stop  offset="1" style="stop-color:#E30613"/>
</linearGradient>
<path class="st10" d="M170.4,157.8c18.4,21.1,43.3,24.9,66.7,27.9c37.6,4.8,79.7,7.5,108.2-28.2c8.7-10.9,15.7-26.4,14.6-42.9
	C358.7,97.4,349,84,338.8,75.2c-15.5-13.4-34.8-20.1-51.9-11.7c-62.9,30.9-9.6,86.9,28,98.9c46.4,14.9,98.8,6.1,138.4-26.3"/>
<path class="st11" d="M-154,17.7"/>
<g id="XMLID_1_">
	<g>
		<polygon class="st12" points="548.2,73.7 497.7,149 476.3,128.5 		"/>
		<polygon class="st13" points="548.2,73.7 476.3,128.5 467.7,120.3 467.7,120.3 		"/>
		<polygon class="st12" points="548.2,73.7 467.7,120.3 467.7,120.3 451.1,104.4 		"/>
		<polygon class="st14" points="476.3,128.5 466.1,129.7 467.7,120.3 		"/>
	</g>
	<g>
		<line class="st15" x1="451.1" y1="104.4" x2="548.2" y2="73.7"/>
		<line class="st15" x1="548.2" y1="73.7" x2="497.7" y2="149"/>
		<polyline class="st15" points="451.1,104.4 467.7,120.3 476.3,128.5 497.7,149 		"/>
		<line class="st15" x1="548.2" y1="73.7" x2="467.7" y2="120.3"/>
		<line class="st15" x1="548.2" y1="73.7" x2="476.3" y2="128.5"/>
		<polyline class="st15" points="467.7,120.3 467.7,120.3 466.1,129.7 		"/>
		<line class="st15" x1="476.3" y1="128.5" x2="466.1" y2="129.7"/>
	</g>
</g>
</svg>
